# xmcd
#
# Track frame offsets: 
#        182
#        14145
#        28220
#        40960
#        53510
#        65577
#        79367
#        92190
#        105550
#        116050
#        127397
#        143355
#        157860
#        175092
#        187455
#        203535
#        218517
#        232722
#        245155
#        259242
#
# Disc length: 3622 seconds
#
# Revision: 0
# Processed by: cddbd v1.5.1PL0 Copyright (c) Steve Scherf et al.
# Submitted via: ExactAudioCopy v0.95a5
#
DISCID=200e2414
DTITLE=Johnny Mathis - Chances Are
DYEAR=1999
DGENRE=folk
TTITLE0=Chances Are
TTITLE1=It's Not for Me to Say
TTITLE2=A Certain Smile
TTITLE3=Call Me
TTITLE4=Teacher, Teacher
TTITLE5=Come to Me
TTITLE6=Wonderful, Wonderful
TTITLE7=Someone
TTITLE8=Not Love (But Your Love)
TTITLE9=The Twelfth of Never
TTITLE10=I've Grown Accustomed to Her Face
TTITLE11=Tonight
TTITLE12=Maria
TTITLE13=Let's Love
TTITLE14=Misty
TTITLE15=Small World
TTITLE16=You Are Beautiful
TTITLE17=The Best of Everything
TTITLE18=My Love for You
TTITLE19=Starbright
EXTD=
EXTT0=
EXTT1=
EXTT2=
EXTT3=
EXTT4=
EXTT5=
EXTT6=
EXTT7=
EXTT8=
EXTT9=
EXTT10=
EXTT11=
EXTT12=
EXTT13=
EXTT14=
EXTT15=
EXTT16=
EXTT17=
EXTT18=
EXTT19=
PLAYORDER=
